<?xml version="1.0" encoding="utf-8"?>
<!-- Generator: Adobe Illustrator 19.0.0, SVG Export Plug-In . SVG Version: 6.00 Build 0)  -->
<svg version="1.1" id="Layer_1" xmlns="http://www.w3.org/2000/svg" xmlns:xlink="http://www.w3.org/1999/xlink" x="0px" y="0px"
	 viewBox="0 0 150 150" style="enable-background:new 0 0 150 150;" xml:space="preserve">
<style type="text/css">
	.st0{fill:none;stroke:#000000;stroke-width:4;stroke-miterlimit:10;}
	.st1{fill:#ED2024;stroke:#000000;stroke-width:2;stroke-miterlimit:10;}
	.st2{fill:#FFFFFF;stroke:#000000;stroke-width:2;stroke-miterlimit:10;}
	.st3{stroke:#000000;stroke-width:2;stroke-miterlimit:10;}
</style>
<path id="XMLID_21_" class="st0" d="M94.9,77.4c0,0,16.7-11.7,31.7,3.2"/>
<path id="XMLID_22_" class="st0" d="M88.8,89.6c0,0,12.4-5.2,32.9,14.5"/>
<path id="XMLID_26_" class="st0" d="M78.7,102.2c0,0,16,0.4,21.6,23.5"/>
<path id="XMLID_30_" class="st0" d="M66.4,62.7c0,0,7-8.7-19.8-25.8"/>
<path id="XMLID_31_" class="st0" d="M58.6,75.7c0,0-3.5-15.2-29.4-18.7"/>
<path id="XMLID_32_" class="st0" d="M54.4,90.9c0,0-1-10.9-29.6-2.7"/>
<ellipse id="XMLID_3_" transform="matrix(0.4684 -0.8835 0.8835 0.4684 -28.5995 109.1055)" class="st1" cx="76.4" cy="78.3" rx="40.9" ry="17.9"/>
<circle id="XMLID_2_" class="st1" cx="92.1" cy="46.4" r="23"/>
<circle id="XMLID_4_" class="st2" cx="109.5" cy="55.1" r="13.9"/>
<circle id="XMLID_5_" class="st2" cx="77.4" cy="37.3" r="13.9"/>
<circle id="XMLID_9_" class="st3" cx="111.9" cy="56.4" r="6.6"/>
<circle id="XMLID_10_" class="st3" cx="73.7" cy="34.6" r="6.6"/>
</svg>
